<?xml version="1.0" encoding="UTF-8"?>
<svg version="1.1" xmlns="http://www.w3.org/2000/svg" width="500" height="500">
<path d="M0 0 C1.98 0.495 1.98 0.495 4 1 C4.01936643 45.06972489 3.94940642 89.13919718 3.81609726 133.20872021 C3.77401061 147.28292288 3.74209593 161.35703415 3.72680578 175.4312894 C3.71440529 186.5598664 3.6866689 197.6883459 3.64538693 208.81685716 C3.62279226 215.03437262 3.60708857 221.2517296 3.60811615 227.46928978 C3.6088586 233.28189862 3.59107624 239.09415108 3.55883217 244.90666771 C3.55029986 247.03799821 3.54860569 249.16936853 3.55419731 251.30070877 C3.56080496 254.20493644 3.54299747 257.10801852 3.51898193 260.01213074 C3.53062256 261.28006156 3.53062256 261.28006156 3.54249835 262.57360715 C3.48462214 266.51457581 3.29286663 268.52814116 1.16902542 271.95001698 C-4.01245115 276.8471191 -9.66208148 277.45380579 -16.42578125 277.3984375 C-17.21341354 277.40130768 -18.00104584 277.40417786 -18.81254578 277.40713501 C-20.47065962 277.40916584 -22.12879796 277.40370497 -23.78686523 277.39111328 C-26.29531836 277.37510962 -28.80214463 277.39096118 -31.31054688 277.41015625 C-49.62022298 277.44158057 -49.62022298 277.44158057 -55 274 C-71.48205447 249.27691829 -59.64203265 214.71128991 -60 185 C-121.05 184.67 -182.1 184.34 -245 184 C-245 184.66 -245 185.32 -245 186 C-245.66 186 -246.32 186 -247 186 C-247.00879936 187.52429878 -247.00879936 187.52429878 -247.01777649 189.07939148 C-247.07500052 198.65819925 -247.14776051 208.23677992 -247.23571491 217.81535625 C-247.28043393 222.73976186 -247.31968673 227.66408444 -247.34643555 232.58862305 C-247.37245317 237.34148404 -247.41284476 242.0940258 -247.46318626 246.84668922 C-247.47986539 248.65951376 -247.49137316 250.47239352 -247.49761391 252.28528404 C-247.50724365 254.8255392 -247.53528892 257.36497572 -247.56762695 259.9050293 C-247.56547432 261.02820557 -247.56547432 261.02820557 -247.5632782 262.17407227 C-247.6432689 266.61972409 -248.28021035 269.45456957 -251 273 C-255.64697889 276.61431691 -260.14595906 277.20846249 -265.94140625 276.78515625 C-275.02437968 275.61495722 -275.02437968 275.61495722 -278.1875 272.5625 C-281.25187653 268.2301056 -281.16069797 264.3647946 -281.18945312 259.25561523 C-281.19774643 258.46835052 -281.20603973 257.68108582 -281.21458435 256.8699646 C-281.23197705 255.16102032 -281.247146 253.4520523 -281.26036072 251.7430706 C-281.28138519 249.04122054 -281.30840697 246.33949006 -281.33703613 243.63771057 C-281.4068764 236.92886288 -281.46631564 230.21993012 -281.52606201 223.51098633 C-281.57694552 217.84049969 -281.63175164 212.17007786 -281.69187927 206.49968147 C-281.71850698 203.83293188 -281.73928748 201.16617639 -281.7598877 198.49937439 C-281.77648599 196.87124338 -281.79335741 195.24311511 -281.81054688 193.61499023 C-281.81473129 192.8694841 -281.81891571 192.12397797 -281.82322693 191.35588074 C-281.80775483 187.55147484 -281.80775483 187.55147484 -283 184 C-283.59425781 184.04640625 -284.18851563 184.0928125 -284.80078125 184.140625 C-293.05562961 184.50008963 -300.82868837 182.72756261 -307.5 177.625 C-312.03831717 172.85976697 -313.43028468 168.59236314 -313.4375 162.0625 C-313.27889026 156.03532975 -312.9231449 152.60969526 -309 148 C-302.60378277 143.09666244 -297.40846655 141.85115465 -289.40107727 141.84178162 C-288.51238313 141.83684364 -287.623689 141.83190566 -286.70806473 141.82681805 C-283.71854574 141.81141206 -280.72904826 141.80307402 -277.73950195 141.79467773 C-275.60115366 141.78510165 -273.46280727 141.77509173 -271.32446289 141.76467896 C-265.50872247 141.73759462 -259.6929739 141.71660417 -253.87720513 141.69667697 C-247.80330937 141.67483916 -241.7294388 141.6474397 -235.65556335 141.62062073 C-224.14902926 141.57066398 -212.6424812 141.52573622 -201.13591975 141.48259836 C-188.03813834 141.43325146 -174.94038222 141.3783239 -161.84262526 141.32291877 C-134.89510709 141.20905294 -107.94756467 141.10222393 -81 141 C-81 140.67 -81 140.34 -81 140 C-73.74 140 -66.48 140 -59 140 C-59.08378906 137.4221167 -59.16757812 134.8442334 -59.25390625 132.18823242 C-59.51985207 123.63982175 -59.69607003 115.09122056 -59.82899475 106.53975964 C-59.91226961 101.35768343 -60.02503119 96.17986749 -60.20703125 91.00024414 C-60.3818155 85.99423819 -60.47672038 80.99230706 -60.51803589 75.98348427 C-60.54744347 74.08002848 -60.60488598 72.17677919 -60.69168091 70.27507591 C-61.32685386 55.7719034 -61.32685386 55.7719034 -57.43478394 51.13541031 C-53.615067 47.77917168 -49.38928426 45.33164427 -44.88343811 43.0143528 C-28.72934342 34.31433178 -10.07277782 15.10916673 0 0 Z M-76 141 C-76 141.33 -76 141.66 -76 142 C-71.38 142 -66.76 142 -62 142 C-62 141.67 -62 141.34 -62 141 C-66.62 141 -71.24 141 -76 141 Z " fill="#053958" transform="translate(392,185)"/>
<path d="M0 0 C3.39066361 2.62762152 4.83627873 4.11813059 5.62818909 8.38368225 C5.62915085 9.67511642 5.63011261 10.9665506 5.63110352 12.29711914 C5.64183647 13.37122292 5.64183647 13.37122292 5.65278625 14.46702576 C5.66963584 16.82372682 5.65029747 19.17851556 5.62890625 21.53515625 C5.62973522 23.17752744 5.63219565 24.81989854 5.63621521 26.46226501 C5.6390705 29.89965875 5.62439753 33.33639991 5.59692383 36.77368164 C5.56281391 41.17793382 5.56887033 45.58102142 5.5875864 49.98532963 C5.59815758 53.3748901 5.58921811 56.76417984 5.57420158 60.15371513 C5.56902193 61.77760451 5.56949896 63.40152218 5.57574654 65.02540779 C5.58120154 67.2949818 5.56081893 69.56289115 5.53344727 71.83227539 C5.5241494 73.76823326 5.5241494 73.76823326 5.5146637 75.74330139 C4.91579323 79.53284519 4.0046676 80.70033968 1 83 C-2.15514793 84.17265251 -4.77852246 83.87267691 -8 83 C-11.55343348 80.886248 -14.80368421 78.57431922 -18.08203125 76.06640625 C-20.58288983 74.29538324 -22.02525172 73.39615292 -25 73 C-25.185625 73.66 -25.37125 74.32 -25.5625 75 C-27.23569088 78.49187662 -29.35801661 80.85050584 -31.94921875 83.69921875 C-34.18666022 86.20941499 -36.27674253 88.81008478 -38.375 91.4375 C-46.53711022 101.41036408 -55.76259091 109.27983598 -66 117 C-66.84433594 117.65097656 -67.68867188 118.30195313 -68.55859375 118.97265625 C-98.03272549 140.79246036 -135.30115901 146.27345539 -170.984375 145.9921875 C-172.02348526 145.98437759 -173.06259552 145.97656769 -174.13319397 145.96852112 C-178.4214891 145.93199306 -182.70953915 145.88986149 -186.99755859 145.82861328 C-213.94958001 145.4663221 -236.31139071 150.37767928 -256.5 169.4765625 C-266.12897684 179.19581099 -276.08841434 194.36847902 -276.1875 208.5625 C-276.125625 209.696875 -276.06375 210.83125 -276 212 C-276.33 212 -276.66 212 -277 212 C-277.03738281 212.61488281 -277.07476562 213.22976563 -277.11328125 213.86328125 C-277.17902344 214.67152344 -277.24476563 215.47976563 -277.3125 216.3125 C-277.39951172 217.51326172 -277.39951172 217.51326172 -277.48828125 218.73828125 C-278.12203772 221.5393881 -278.6900191 222.29959324 -281 224 C-285.23776104 224.5901983 -289.49538973 224.51498526 -293.76904297 224.50097656 C-295.86175993 224.50000614 -297.9507833 224.54158021 -300.04296875 224.5859375 C-301.38020072 224.59114658 -302.71744538 224.59383266 -304.0546875 224.59375 C-305.87202393 224.60438477 -305.87202393 224.60438477 -307.72607422 224.61523438 C-311.92728557 223.82574499 -313.4118555 222.34212563 -316 219 C-316.30250804 216.04519927 -316.3340601 213.8839863 -316 211 C-315.9273291 210.31147949 -315.8546582 209.62295898 -315.77978516 208.91357422 C-314.45323505 198.18419805 -311.94520967 188.07112589 -308 178 C-307.72559082 177.28312012 -307.45118164 176.56624023 -307.16845703 175.82763672 C-302.7182021 164.39572149 -297.23615682 155.08575406 -289 146 C-288.46600586 145.40171387 -287.93201172 144.80342773 -287.38183594 144.18701172 C-279.22388231 135.16844404 -270.76235394 128.60684789 -260 123 C-258.98921387 122.46270264 -258.98921387 122.46270264 -257.95800781 121.91455078 C-237.50341852 111.09046341 -217.85899762 106.76930747 -194.68359375 106.97265625 C-193.29989471 106.97962388 -191.91619165 106.98582912 -190.53248596 106.99131775 C-184.70704495 107.0155019 -178.88171281 107.05088562 -173.05639648 107.09594727 C-169.47335084 107.12313558 -165.89036795 107.1399116 -162.30723763 107.15081596 C-160.31801081 107.15983035 -158.32884524 107.18017432 -156.33970642 107.20094299 C-144.33924127 107.23335253 -131.6932496 106.71859437 -120.375 102.375 C-119.67391113 102.11485107 -118.97282227 101.85470215 -118.25048828 101.58666992 C-97.26953974 93.48546826 -77.70266281 78.07164261 -63.91796875 60.4453125 C-62.3084827 58.39329974 -60.63557341 56.48224854 -58.875 54.5625 C-56.80699247 52.27587327 -56.80699247 52.27587327 -57.02734375 50.1171875 C-58.49581962 46.92074605 -60.84335164 45.58104072 -63.6875 43.5625 C-64.78185563 42.76906382 -65.8756123 41.97480082 -66.96875 41.1796875 C-67.9690625 40.46039063 -68.969375 39.74109375 -70 39 C-75.44392721 34.95768091 -75.44392721 34.95768091 -77.125 32.0625 C-76.91589045 28.61219236 -75.09231697 26.67409668 -73 24 C-70.0402832 22.30004883 -70.0402832 22.30004883 -66.55078125 20.95703125 C-65.5941433 20.58117386 -65.5941433 20.58117386 -64.61817932 20.19772339 C-62.52354541 19.3821179 -60.41918099 18.59640961 -58.3125 17.8125 C-56.8455909 17.25242868 -55.37896067 16.69162645 -53.91259766 16.13012695 C-43.30982961 12.10359854 -32.6150768 8.33021491 -21.875 4.6875 C-21.17371979 4.4468985 -20.47243958 4.206297 -19.74990845 3.95840454 C-17.75115821 3.27651953 -15.74791292 2.61026545 -13.7421875 1.94921875 C-12.6063623 1.57112061 -11.47053711 1.19302246 -10.30029297 0.8034668 C-6.60361033 -0.09650232 -3.78545828 -0.48483299 0 0 Z " fill="#0A8F8E" transform="translate(421,84)"/>
<path d="M0 0 C1.41697573 1.05552906 2.81309596 2.13960577 4.1875 3.25 C4.92355469 3.81332031 5.65960938 4.37664063 6.41796875 4.95703125 C18.40509658 14.75717879 26.41707653 28.84075868 28.1875 44.25 C29.29759443 60.62876161 25.53028164 76.55848887 15.0625 89.5 C4.20286506 100.82226513 -9.70473602 109.85897783 -25.73046875 110.5859375 C-44.75187471 110.91194709 -58.53341804 106.61688598 -72.61767578 93.48779297 C-84.09206022 82.37303664 -89.86960022 67.46355696 -90.1875 51.625 C-90.18963081 33.54723177 -82.78288279 19.45451545 -70.4375 6.625 C-67.8125 4.25 -67.8125 4.25 -65.8125 4.25 C-65.8125 3.59 -65.8125 2.93 -65.8125 2.25 C-63.6508039 1.11450233 -61.4838811 -0.00828972 -59.3125 -1.125 C-58.71179688 -1.44210938 -58.11109375 -1.75921875 -57.4921875 -2.0859375 C-40.96851092 -10.52355958 -15.78371656 -9.84129516 0 0 Z " fill="#0A908E" transform="translate(280.8125,51.75)"/>
<path d="M0 0 C0.89527265 6.17679557 1.18859515 12.2116999 1.23828125 18.44921875 C1.246353 19.42486282 1.25442474 20.4005069 1.26274109 21.40571594 C1.27649526 23.45543686 1.28725566 25.50517984 1.29516602 27.55493164 C1.3067521 29.64875002 1.32730668 31.74253738 1.35668945 33.83618164 C1.39925546 36.87406309 1.41551189 39.91107664 1.42578125 42.94921875 C1.44328934 43.88263596 1.46079742 44.81605316 1.47883606 45.77775574 C1.47444771 47.08985771 1.47444771 47.08985771 1.4699707 48.4284668 C1.47583694 49.19265427 1.48170319 49.95684174 1.48774719 50.7441864 C0.78356731 54.0009936 -0.69420498 55.6231439 -3 58 C-5.63900852 58.62082577 -5.63900852 58.62082577 -8.69984436 58.61473083 C-10.44331902 58.6293763 -10.44331902 58.6293763 -12.22201538 58.64431763 C-13.49332306 58.62948334 -14.76463074 58.61464905 -16.07446289 58.59936523 C-17.42977854 58.60122948 -18.78509268 58.60526652 -20.14039612 58.61131287 C-23.81822336 58.62129073 -27.49528037 58.60011384 -31.17299581 58.57283282 C-35.02062452 58.54900902 -38.86823779 58.55194783 -42.71592712 58.55152893 C-49.17639208 58.54690055 -55.63656237 58.52325565 -62.09692383 58.48706055 C-69.56896113 58.44530916 -77.04073313 58.42774469 -84.51288038 58.4244408 C-92.46495786 58.42084277 -100.41693971 58.401971 -108.36897731 58.37732053 C-110.66199644 58.37108875 -112.9550083 58.36745444 -115.24803352 58.36428642 C-118.84892923 58.35839018 -122.44963494 58.34208941 -126.05045128 58.31768227 C-128.0047793 58.30667886 -129.95915445 58.30540249 -131.91351318 58.30438232 C-133.0730098 58.2944072 -134.23250641 58.28443207 -135.42713928 58.27415466 C-136.43683808 58.26950416 -137.44653688 58.26485365 -138.48683262 58.26006222 C-141 58 -141 58 -144 56 C-146.43604456 46.77690079 -143.35670524 36.2519526 -139 28 C-131.31972401 16.11804631 -121.51559336 9.04831173 -107.65771484 5.95410156 C-101.16743358 4.68799486 -94.74947843 4.70274059 -88.15625 4.69140625 C-86.82034241 4.68025584 -85.48444477 4.66785224 -84.14855957 4.65428162 C-78.54200168 4.59973685 -72.93537229 4.56873061 -67.32861328 4.54370117 C-37.64058231 4.65771088 -37.64058231 4.65771088 -8.47070312 -0.12280273 C-5.08048853 -0.97965706 -3.29190382 -1.02871994 0 0 Z " fill="#013756" transform="translate(311,250)"/>
<path d="M0 0 C0.99 0 1.98 0 3 0 C3.89527265 6.17679557 4.18859515 12.2116999 4.23828125 18.44921875 C4.246353 19.42486282 4.25442474 20.4005069 4.26274109 21.40571594 C4.27649526 23.45543686 4.28725566 25.50517984 4.29516602 27.55493164 C4.3067521 29.64875002 4.32730668 31.74253738 4.35668945 33.83618164 C4.39925546 36.87406309 4.41551189 39.91107664 4.42578125 42.94921875 C4.44328934 43.88263596 4.46079742 44.81605316 4.47883606 45.77775574 C4.47444771 47.08985771 4.47444771 47.08985771 4.4699707 48.4284668 C4.47583694 49.19265427 4.48170319 49.95684174 4.48774719 50.7441864 C3.78356731 54.0009936 2.30579502 55.6231439 0 58 C-2.63900852 58.62082577 -2.63900852 58.62082577 -5.69984436 58.61473083 C-7.44331902 58.6293763 -7.44331902 58.6293763 -9.22201538 58.64431763 C-10.49332306 58.62948334 -11.76463074 58.61464905 -13.07446289 58.59936523 C-14.42977854 58.60122948 -15.78509268 58.60526652 -17.14039612 58.61131287 C-20.81822336 58.62129073 -24.49528037 58.60011384 -28.17299581 58.57283282 C-32.02062452 58.54900902 -35.86823779 58.55194783 -39.71592712 58.55152893 C-46.17639208 58.54690055 -52.63656237 58.52325565 -59.09692383 58.48706055 C-66.56896113 58.44530916 -74.04073313 58.42774469 -81.51288038 58.4244408 C-89.46495786 58.42084277 -97.41693971 58.401971 -105.36897731 58.37732053 C-107.66199644 58.37108875 -109.9550083 58.36745444 -112.24803352 58.36428642 C-115.84892923 58.35839018 -119.44963494 58.34208941 -123.05045128 58.31768227 C-125.0047793 58.30667886 -126.95915445 58.30540249 -128.91351318 58.30438232 C-130.0730098 58.2944072 -131.23250641 58.28443207 -132.42713928 58.27415466 C-133.43683808 58.26950416 -134.44653688 58.26485365 -135.48683262 58.26006222 C-138 58 -138 58 -141 56 C-142.39336015 51.12323948 -141.76343047 46.91988527 -141 42 C-139.02 41.505 -139.02 41.505 -137 41 C-137.33 45.29 -137.66 49.58 -138 54 C-92.79 53.67 -47.58 53.34 -1 53 C-0.67 35.51 -0.34 18.02 0 0 Z " fill="#022043" transform="translate(308,250)"/>
<path d="M0 0 C0.74414923 0.00291284 1.48829846 0.00582568 2.25499767 0.00882679 C3.43234239 0.00754515 3.43234239 0.00754515 4.63347185 0.00623763 C7.28373924 0.00458044 9.93394441 0.01010807 12.58420604 0.01555592 C14.47595509 0.01583776 16.36770425 0.01568011 18.25945324 0.01511341 C23.41213175 0.01482534 28.5647872 0.02072366 33.71746033 0.02768737 C39.09600961 0.03391927 44.47455936 0.03452458 49.85311168 0.03571278 C60.0457989 0.03882658 70.23847544 0.04704062 80.43115795 0.05706227 C92.03192634 0.06822189 103.63269522 0.07373347 115.23346764 0.0787577 C139.10421123 0.0892232 162.97494535 0.10682358 186.84568065 0.12908131 C187.79487113 4.5046118 187.98090583 8.66930237 187.95920604 13.13225514 C187.95935207 13.92302449 187.9594981 14.71379383 187.95964855 15.52852589 C187.95895428 18.1310831 187.95118466 20.73356792 187.9433369 23.33611256 C187.941471 25.145006 187.94004791 26.95389995 187.93904918 28.76279408 C187.93523759 33.51551934 187.92541891 38.26821386 187.9143452 43.02092701 C187.90410188 47.87403151 187.89954531 52.72714099 187.89450878 57.58025318 C187.88379541 67.0965427 187.8667353 76.61280945 187.84568065 86.12908131 C187.18568065 86.12908131 186.52568065 86.12908131 185.84568065 86.12908131 C185.84568065 58.40908131 185.84568065 30.68908131 185.84568065 2.12908131 C123.14568065 2.12908131 60.44568065 2.12908131 -4.15431935 2.12908131 C-4.15431935 30.17908131 -4.15431935 58.22908131 -4.15431935 87.12908131 C-5.14431935 87.12908131 -6.13431935 87.12908131 -7.15431935 87.12908131 C-7.04698958 75.93328152 -6.93439171 64.73754849 -6.81498009 53.54187065 C-6.75970592 48.34383077 -6.70627888 43.14578532 -6.65700489 37.94768482 C-6.60942744 32.93560869 -6.55708731 27.92360327 -6.5013786 22.91161114 C-6.48092494 20.99497881 -6.46221696 19.07832706 -6.44524533 17.16166073 C-6.42126769 14.48674804 -6.39120448 11.81197033 -6.35964161 9.13713795 C-6.35388615 8.33656971 -6.34813069 7.53600147 -6.34220082 6.71117359 C-6.25852694 0.51401246 -6.24285906 0.01852978 0 0 Z " fill="#061F3D" transform="translate(148.15431934595108,365.8709186911583)"/>
<path d="M0 0 C4.95 0 9.9 0 15 0 C15 0.33 15 0.66 15 1 C12.36 1.33 9.72 1.66 7 2 C12.28 2.33 17.56 2.66 23 3 C22.67 3.66 22.34 4.32 22 5 C-57.53 5 -137.06 5 -219 5 C-218.34 4.67 -217.68 4.34 -217 4 C-217 3.34 -217 2.68 -217 2 C-145.39 1.67 -73.78 1.34 0 1 C0 0.67 0 0.34 0 0 Z " fill="#1F3D56" transform="translate(311,325)"/>
<path d="M0 0 C1.90608098 3.21182149 2.22266247 5.53882603 2.125 9.25 C2.10695312 10.14203125 2.08890625 11.0340625 2.0703125 11.953125 C2.04710937 12.62859375 2.02390625 13.3040625 2 14 C3.03818123 13.75601219 3.03818123 13.75601219 4.09733582 13.50709534 C7.27243535 12.95240555 10.21935049 12.88011706 13.44262695 12.88647461 C14.72357742 12.88655014 16.00452789 12.88662567 17.32429504 12.88670349 C18.71229085 12.89180935 20.10028625 12.89702533 21.48828125 12.90234375 C22.91603038 12.90421025 24.34378015 12.90563306 25.77153015 12.90663147 C29.51813545 12.91043835 33.2647016 12.92025293 37.0112915 12.93133545 C40.83890249 12.94158898 44.66651984 12.94613752 48.49414062 12.95117188 C55.99611154 12.96187693 63.49805027 12.97893127 71 13 C71.495 14.485 71.495 14.485 72 16 C63.05534682 16.04631189 54.11073482 16.08186333 45.16598797 16.10362434 C41.01271522 16.11406779 36.85952441 16.12823719 32.70629883 16.15087891 C28.69925441 16.17258734 24.69228888 16.1845644 20.6851902 16.18975449 C19.15535045 16.19345384 17.62551508 16.20067765 16.09570885 16.21146011 C13.95523067 16.22594863 11.81507975 16.22797908 9.67456055 16.22705078 C7.84588692 16.23371262 7.84588692 16.23371262 5.98027039 16.24050903 C3 16 3 16 0 14 C-1.39336015 9.12323948 -0.76343047 4.91988527 0 0 Z " fill="#062E49" transform="translate(167,292)"/>
<path d="M0 0 C2.4375 0.375 2.4375 0.375 5 1 C6.49282393 3.98564786 6.11916977 6.68983718 6.11352539 10.02001953 C6.11367142 10.74207581 6.11381744 11.46413208 6.1139679 12.20806885 C6.11327007 14.59968041 6.10548375 16.99121451 6.09765625 19.3828125 C6.09579161 21.03905189 6.09436792 22.69529184 6.09336853 24.35153198 C6.08954699 28.71467608 6.07971978 33.077787 6.06866455 37.44091797 C6.05844264 41.89159699 6.05386924 46.34228137 6.04882812 50.79296875 C6.0380972 59.52866108 6.02102512 68.26432641 6 77 C5.34 77 4.68 77 4 77 C3.18314525 72.69656142 2.86216306 68.6096508 2.82641602 64.23193359 C2.819729 63.58399338 2.81304199 62.93605316 2.80615234 62.26847839 C2.79218608 60.87225532 2.78026586 59.47601055 2.77020454 58.07975388 C2.75368307 55.8685683 2.73044544 53.65754511 2.70530701 51.44644165 C2.63481018 45.16359637 2.57430498 38.88068889 2.52319336 32.59765625 C2.49138977 28.74567696 2.45012418 24.89389313 2.40299797 21.0420723 C2.3870022 19.57730237 2.37466943 18.11248763 2.36609077 16.64765549 C2.35392504 14.60132718 2.32977468 12.55545895 2.30297852 10.50927734 C2.29267105 9.34600922 2.28236359 8.18274109 2.27174377 6.98422241 C2.00995307 4.10930215 1.49798008 2.43260129 0 0 Z " fill="#54A2A6" transform="translate(420,86)"/>
<path d="M0 0 C21.78 0 43.56 0 66 0 C65.67 0.99 65.34 1.98 65 3 C43.55 3 22.1 3 0 3 C0 2.01 0 1.02 0 0 Z " fill="#092E47" transform="translate(241,305)"/>
<path d="M0 0 C0.33 0 0.66 0 1 0 C1 29.04 1 58.08 1 88 C-0.32 87.34 -1.64 86.68 -3 86 C-2.34 86 -1.68 86 -1 86 C-1.00222061 84.93733414 -1.00444122 83.87466827 -1.00672913 82.77980042 C-1.02696002 72.78785109 -1.04197189 62.7959059 -1.05181217 52.80394077 C-1.05704113 47.66640434 -1.06413901 42.52888437 -1.07543945 37.39135742 C-1.08626787 32.4376859 -1.09227674 27.48403026 -1.09487724 22.53034782 C-1.09673157 20.63602384 -1.10035234 18.74170076 -1.10573006 16.8473835 C-1.11293989 14.20365614 -1.11399097 11.55999529 -1.11352539 8.91625977 C-1.1189183 7.72943352 -1.1189183 7.72943352 -1.12442017 6.51863098 C-1.11405216 1.11405216 -1.11405216 1.11405216 0 0 Z " fill="#0A2641" transform="translate(335,239)"/>
<path d="M0 0 C0.66 0 1.32 0 2 0 C2 1.32 2 2.64 2 4 C-2.39806121 6.18304258 -6.49113958 6.29129873 -11.30078125 6.265625 C-12.09598679 6.26753845 -12.89119232 6.2694519 -13.710495 6.27142334 C-15.38894976 6.27278067 -17.06741518 6.26911584 -18.74584961 6.26074219 C-21.2937018 6.25007868 -23.84084209 6.26063062 -26.38867188 6.2734375 C-28.0260432 6.272115 -29.66341409 6.26955072 -31.30078125 6.265625 C-32.05313553 6.26967346 -32.80548981 6.27372192 -33.5806427 6.27789307 C-38.67941131 6.23349644 -43.14372827 5.61594944 -48 4 C-48.33 3.01 -48.66 2.02 -49 1 C-48.40087296 1.00222061 -47.80174591 1.00444122 -47.1844635 1.00672913 C-40.97202142 1.02878165 -34.75959038 1.04390646 -28.54711914 1.05493164 C-26.22582549 1.05997333 -23.90453503 1.06680651 -21.58325195 1.07543945 C-18.25471205 1.08751225 -14.92621398 1.09322979 -11.59765625 1.09765625 C-10.03048607 1.10539818 -10.03048607 1.10539818 -8.43165588 1.11329651 C-6.99027504 1.11340981 -6.99027504 1.11340981 -5.51977539 1.11352539 C-4.66928116 1.115746 -3.81878693 1.11796661 -2.94252014 1.12025452 C-0.99411455 1.21480284 -0.99411455 1.21480284 0 0 Z " fill="#072141" transform="translate(387,456)"/>
<path d="M0 0 C0.33 0.99 0.66 1.98 1 3 C1.66 3 2.32 3 3 3 C3 14.88 3 26.76 3 39 C1.02 39.495 1.02 39.495 -1 40 C-0.98839844 39.31679687 -0.97679687 38.63359375 -0.96484375 37.9296875 C-0.86642584 26.9350015 -1.44424134 15.97771153 -2 5 C-2.66 4.67 -3.32 4.34 -4 4 C-2.68 2.68 -1.36 1.36 0 0 Z " fill="#062640" transform="translate(393,187)"/>
<path d="M0 0 C1.30532548 2.61065096 0.78282536 3.7554781 0.125 6.5625 C-0.05804688 7.36816406 -0.24109375 8.17382812 -0.4296875 9.00390625 C-1 11 -1 11 -2 12 C-3.02580714 18.80888093 -3.02860279 25.32339051 -2.6875 32.1875 C-2.65205078 33.14591797 -2.61660156 34.10433594 -2.58007812 35.09179688 C-2.34730097 40.11908848 -1.73985889 44.23628155 0 49 C-0.33 49.66 -0.66 50.32 -1 51 C-1.103125 50.360625 -1.20625 49.72125 -1.3125 49.0625 C-1.6528125 48.0415625 -1.6528125 48.0415625 -2 47 C-2.99 46.67 -3.98 46.34 -5 46 C-9.67146772 31.98559685 -7.65460892 15.75357192 -1.36328125 2.5703125 C-0.68845703 1.29800781 -0.68845703 1.29800781 0 0 Z " fill="#3A9897" transform="translate(198,74)"/>
<path d="M0 0 C1.18681726 3.56045177 1.09689832 6.43808337 1.0625 10.1875 C1.05347656 11.45980469 1.04445313 12.73210937 1.03515625 14.04296875 C1.02355469 15.01878906 1.01195313 15.99460937 1 17 C1.99 17 2.98 17 4 17 C4.37125 17.7425 4.7425 18.485 5.125 19.25 C8.33837095 23.96294406 13.74354098 25.24784699 19 27 C21.22574335 27.22451458 23.45581519 27.40782878 25.6875 27.5625 C26.86699219 27.64628906 28.04648438 27.73007812 29.26171875 27.81640625 C30.61716797 27.90728516 30.61716797 27.90728516 32 28 C31.34 29.65 30.68 31.3 30 33 C29.67 32.34 29.34 31.68 29 31 C28.10861328 31.06960938 28.10861328 31.06960938 27.19921875 31.140625 C18.94437039 31.50008963 11.17131163 29.72756261 4.5 24.625 C-0.19300062 19.69734935 -1.39336441 15.48812709 -1.25 8.75 C-1.23453125 7.52796875 -1.2190625 6.3059375 -1.203125 5.046875 C-1 2 -1 2 0 0 Z " fill="#41576D" transform="translate(80,338)"/>
<path d="M0 0 C1.13679199 0.00128906 2.27358398 0.00257813 3.44482422 0.00390625 C4.68506348 0.01679688 5.92530273 0.0296875 7.203125 0.04296875 C9.13502686 0.05263672 9.13502686 0.05263672 11.10595703 0.0625 C28.89171972 0.17803853 46.67520533 0.71981193 64.453125 1.23046875 C64.453125 1.56046875 64.453125 1.89046875 64.453125 2.23046875 C50.12895791 3.25419482 35.87109657 3.32108719 21.515625 3.23046875 C17.21484597 3.20363082 12.91411335 3.18378999 8.61328125 3.16796875 C7.17542015 3.15552124 7.17542015 3.15552124 5.70851135 3.14282227 C-0.76262395 3.11964052 -7.11348909 3.5386932 -13.546875 4.23046875 C-12.92613098 3.92337479 -12.30538696 3.61628082 -11.66583252 3.29988098 C-10.30437634 2.61277051 -8.96073609 1.88845414 -7.64355469 1.11987305 C-4.97642418 -0.01151452 -2.89582434 -0.01212537 0 0 Z " fill="#67AAAB" transform="translate(215.546875,226.76953125)"/>
<path d="M0 0 C0.495 0.99 0.495 0.99 1 2 C-0.15628906 2.09087891 -0.15628906 2.09087891 -1.3359375 2.18359375 C-2.33882813 2.26738281 -3.34171875 2.35117188 -4.375 2.4375 C-5.87160156 2.55931641 -5.87160156 2.55931641 -7.3984375 2.68359375 C-9.97927613 2.84965626 -9.97927613 2.84965626 -12 4 C-14.4414156 4.09279918 -16.85400059 4.12583928 -19.29541016 4.11352539 C-20.42238564 4.11374443 -20.42238564 4.11374443 -21.5721283 4.1139679 C-24.0611355 4.11326996 -26.55006833 4.10548314 -29.0390625 4.09765625 C-30.76256265 4.09579165 -32.48606334 4.09436794 -34.20956421 4.09336853 C-38.75025897 4.08954669 -43.29092185 4.07971922 -47.831604 4.06866455 C-52.46325245 4.05844329 -57.09490603 4.05386937 -61.7265625 4.04882812 C-70.81772236 4.03809667 -79.90885853 4.02102422 -89 4 C-89 3.67 -89 3.34 -89 3 C-88.25514343 2.99191315 -87.51028687 2.98382629 -86.74285889 2.97549438 C-79.62634366 2.89664159 -72.50999594 2.80910271 -65.39370346 2.71247292 C-61.73760297 2.66311643 -58.08152332 2.61679717 -54.42529297 2.578125 C-39.49299129 2.41817993 -24.65410705 2.22902129 -9.80957031 0.41552734 C-6.49591938 0.05409221 -3.32813955 -0.08061464 0 0 Z " fill="#596573" transform="translate(298,252)"/>
<path d="M0 0 C1.90608098 3.21182149 2.22266247 5.53882603 2.125 9.25 C2.10695312 10.14203125 2.08890625 11.0340625 2.0703125 11.953125 C2.04710937 12.62859375 2.02390625 13.3040625 2 14 C2.66604248 13.83701416 3.33208496 13.67402832 4.01831055 13.50610352 C7.59898073 12.89833071 11.08872233 12.87551276 14.70703125 12.90234375 C15.79512337 12.90446617 15.79512337 12.90446617 16.90519714 12.90663147 C19.2076745 12.91220069 21.51005235 12.92474739 23.8125 12.9375 C25.37955588 12.94251898 26.9466133 12.94708119 28.51367188 12.95117188 C32.34248589 12.96216002 36.17122611 12.97940327 40 13 C40.495 13.99 40.495 13.99 41 15 C35.6435122 15.19232121 30.28680927 15.37103441 24.92944336 15.53710938 C23.10672819 15.59553493 21.28412855 15.65768805 19.46166992 15.72363281 C16.84315017 15.81773698 14.22450854 15.89846008 11.60546875 15.9765625 C10.38188911 16.02485703 10.38188911 16.02485703 9.1335907 16.0741272 C3.34161512 16.22774341 3.34161512 16.22774341 0 14 C-1.39336015 9.12323948 -0.76343047 4.91988527 0 0 Z " fill="#0C2E4E" transform="translate(167,292)"/>
<path d="M0 0 C0.66 0.33 1.32 0.66 2 1 C-1.19681305 7.15682514 -4.2919223 10.21266872 -10.125 14.0625 C-12.9022276 15.77252037 -12.9022276 15.77252037 -14.4375 17.5625 C-16.97348884 19.89560973 -19.78107415 20.87055233 -23 22 C-25.22265625 21.578125 -25.22265625 21.578125 -27 21 C-26.5373877 20.68361572 -26.07477539 20.36723145 -25.59814453 20.04125977 C-16.56466988 13.83677761 -7.87381184 7.66100611 0 0 Z " fill="#2C4860" transform="translate(363,215)"/>
<path d="M0 0 C0.99 0.66 1.98 1.32 3 2 C1.98679687 2.41958984 1.98679687 2.41958984 0.953125 2.84765625 C-6.00746487 5.93719317 -6.00746487 5.93719317 -10.4609375 11.8203125 C-11.61089883 16.47015612 -11.28059885 21.25320284 -11 26 C-11.66 26 -12.32 26 -13 26 C-13.22370596 23.79317093 -13.42830391 21.58440027 -13.625 19.375 C-13.74101563 18.14523437 -13.85703125 16.91546875 -13.9765625 15.6484375 C-14.01015395 10.41936827 -13.04202161 7.20655133 -9.625 3.25 C-4.2 -1.4 -4.2 -1.4 0 0 Z " fill="#1B3C56" transform="translate(94,329)"/>
<path d="M0 0 C0.495 0.1546875 0.99 0.309375 1.5 0.46875 C4.97649424 1.20750502 8.46020614 1.32838548 12 1.5 C19.01311599 1.87315838 26.0048693 2.36652959 33 3 C32.67 3.66 32.34 4.32 32 5 C27.7641643 5.02469321 23.52836658 5.04285671 19.29248047 5.05493164 C17.8510668 5.05996474 16.40965824 5.06679173 14.96826172 5.07543945 C12.89809915 5.08754983 10.82800399 5.09323847 8.7578125 5.09765625 C7.5114502 5.10289307 6.26508789 5.10812988 4.98095703 5.11352539 C2 5 2 5 0 4 C0 2.68 0 1.36 0 0 Z " fill="#4CA0A3" transform="translate(108,303)"/>
<path d="M0 0 C0.66 0.33 1.32 0.66 2 1 C0.59783462 9.68190072 -10.51017957 15.99964656 -17 21 C-18.15428321 17.53715036 -17.69803633 15.86003226 -16.2265625 12.56640625 C-14.24883705 10.04071228 -11.83063334 10.01952521 -8.7890625 9.52734375 C-8.19867188 9.35332031 -7.60828125 9.17929688 -7 9 C-5.78130071 6.49552484 -5.78130071 6.49552484 -5 4 C-2.375 3.1875 -2.375 3.1875 0 3 C0 2.01 0 1.02 0 0 Z " fill="#358889" transform="translate(376,177)"/>
<path d="M0 0 C0 0.99 0 1.98 0 3 C-13.2 3 -26.4 3 -40 3 C-40.33 2.34 -40.66 1.68 -41 1 C-36.60756178 0.85572143 -32.21506594 0.71338458 -27.82250977 0.57275391 C-26.3319331 0.52476948 -24.84137265 0.47627818 -23.35083008 0.42724609 C-15.56579194 0.17148554 -7.79051778 -0.07026397 0 0 Z " fill="#097E7E" transform="translate(280,225)"/>
<path d="M0 0 C0.33 0 0.66 0 1 0 C0.76483847 2.63180778 0.52683352 5.26331247 0.28515625 7.89453125 C0.10177838 9.89159166 -0.07819083 11.88896957 -0.25390625 13.88671875 C-0.33511719 14.76972656 -0.41632813 15.65273438 -0.5 16.5625 C-0.5721875 17.36816406 -0.644375 18.17382812 -0.71875 19.00390625 C-1 21 -1 21 -2 23 C-2.22467831 24.53668865 -2.40796805 26.07968054 -2.5625 27.625 C-2.64628906 28.44226563 -2.73007813 29.25953125 -2.81640625 30.1015625 C-2.87699219 30.72804688 -2.93757812 31.35453125 -3 32 C-4.98 32.495 -4.98 32.495 -7 33 C-6.03833536 21.40261153 -3.87056893 10.97646076 0 0 Z " fill="#0F7573" transform="translate(146,273)"/>
<path d="M0 0 C3.26737313 -0.15938405 5.73772885 -0.09222722 8.84375 1 C14.69739162 2.74686988 20.89318765 2.20740803 26.9375 2.125 C28.19369141 2.11597656 29.44988281 2.10695312 30.74414062 2.09765625 C33.82962522 2.07419249 36.91471205 2.04136201 40 2 C40 1.34 40 0.68 40 0 C41.32 0 42.64 0 44 0 C44 0.66 44 1.32 44 2 C37.12382432 4.41471052 30.96810328 5.51879454 23.6875 5.4375 C22.7797583 5.43427734 21.8720166 5.43105469 20.93676758 5.42773438 C13.40715299 5.27260867 6.98975559 3.90483349 0 1 C0 0.67 0 0.34 0 0 Z " fill="#599FA3" transform="translate(226,157)"/>
<path d="M0 0 C0 0.66 0 1.32 0 2 C-1.57533086 2.86883706 -3.16064509 3.71959068 -4.75 4.5625 C-5.63171875 5.03816406 -6.5134375 5.51382813 -7.421875 6.00390625 C-10.20701188 7.07998186 -11.26980214 7.06528748 -14 6 C-14 6.66 -14 7.32 -14 8 C-27.00025463 10.65573571 -41.36823675 9.93717296 -54 6 C-54 5.34 -54 4.68 -54 4 C-52.27073126 4.31193464 -50.54158956 4.62457362 -48.8125 4.9375 C-47.84957031 5.11152344 -46.88664063 5.28554687 -45.89453125 5.46484375 C-44.13977564 5.78927225 -42.38966648 6.14318973 -40.65234375 6.55078125 C-30.93030443 8.19737112 -21.1126425 7.70683763 -12 4 C-10.68 4 -9.36 4 -8 4 C-8 3.34 -8 2.68 -8 2 C-2.25 0 -2.25 0 0 0 Z " fill="#0B7C7C" transform="translate(280,151)"/>
<path d="M0 0 C-1.60963042 3.96289127 -4.3863623 6.66902919 -7.3125 9.6875 C-11.77616322 14.40047709 -15.28052933 19.05021887 -18 25 C-18.33 25 -18.66 25 -19 25 C-19 23.35 -19 21.7 -19 20 C-18.34 20 -17.68 20 -17 20 C-17 19.01 -17 18.02 -17 17 C-16.34 17 -15.68 17 -15 17 C-15 15.68 -15 14.36 -15 13 C-14.34 13 -13.68 13 -13 13 C-12.8453125 12.1028125 -12.8453125 12.1028125 -12.6875 11.1875 C-11.89496146 8.66578648 -11.08408591 7.60314301 -9 6 C-8.01 6 -7.02 6 -6 6 C-5.896875 5.38125 -5.79375 4.7625 -5.6875 4.125 C-4.72223986 1.14146864 -3.16449578 0 0 0 Z " fill="#3B9390" transform="translate(169,247)"/>
<path d="M0 0 C0.33 0 0.66 0 1 0 C1 11.88 1 23.76 1 36 C0.67 36 0.34 36 0 36 C-1.41193641 25.58696894 -2.30028643 15.52670777 -2 5 C-1.67 5 -1.34 5 -1 5 C-0.67 3.35 -0.34 1.7 0 0 Z " fill="#485F74" transform="translate(395,190)"/>
<path d="M0 0 C-3.42346555 3.14958831 -6.44262737 3.56179109 -11 4 C-11 4.66 -11 5.32 -11 6 C-14.08809695 7.76462683 -15.23312136 8 -19 8 C-19.144375 9.093125 -19.28875 10.18625 -19.4375 11.3125 C-20 15 -20 15 -21 18 C-22.6875 15.875 -22.6875 15.875 -24 13 C-23.13909767 9.75506046 -22.17498077 7.80849868 -19.359375 5.87109375 C-17.27666543 4.79164062 -15.17225871 3.88566924 -13 3 C-11.69289063 2.42185547 -11.69289063 2.42185547 -10.359375 1.83203125 C-3.42070537 -1.14023512 -3.42070537 -1.14023512 0 0 Z " fill="#338D8E" transform="translate(368,102)"/>
<path d="M0 0 C3.85410207 -0.05847045 7.70808865 -0.09375405 11.5625 -0.125 C12.64853516 -0.14175781 13.73457031 -0.15851562 14.85351562 -0.17578125 C20.64479442 -0.21098659 25.54134642 0.01076326 31 2 C31 2.66 31 3.32 31 4 C29.9275 3.84660156 28.855 3.69320312 27.75 3.53515625 C22.18275169 2.83925021 16.60286558 2.6513766 11 2.4375 C9.93910156 2.39431641 8.87820312 2.35113281 7.78515625 2.30664062 C5.19020849 2.20144004 2.59517916 2.09929881 0 2 C0 1.34 0 0.68 0 0 Z " fill="#257B7B" transform="translate(238,45)"/>
<path d="M0 0 C-3.50258736 2.06852553 -6.80704007 2.57820915 -10.8125 3.125 C-11.99457031 3.29257813 -13.17664063 3.46015625 -14.39453125 3.6328125 C-17.95797724 3.99572033 -21.42094402 4.06415721 -25 4 C-24.67 3.01 -24.34 2.02 -24 1 C-15.82556987 -1.27904619 -8.38473964 -0.89405005 0 0 Z " fill="#359594" transform="translate(217,193)"/>
<path d="M0 0 C0 0.66 0 1.32 0 2 C-1.64453125 3.62109375 -1.64453125 3.62109375 -3.8125 5.4375 C-6.31267113 7.54602319 -8.7128889 9.662345 -11 12 C-16.15021459 16.92131617 -16.15021459 16.92131617 -20.375 17.3125 C-21.24125 17.209375 -22.1075 17.10625 -23 17 C-19.66463728 13.39713952 -15.94934979 10.71621631 -11.9375 7.9375 C-7.45121055 4.92448241 -7.45121055 4.92448241 -3.42407227 1.35375977 C-2 0 -2 0 0 0 Z " fill="#4E9F9E" transform="translate(343,161)"/>
<path d="M0 0 C8.81415929 -0.29380531 8.81415929 -0.29380531 12 2 C12.33 2.66 12.66 3.32 13 4 C13.99 4.33 14.98 4.66 16 5 C16 5.99 16 6.98 16 8 C16.66 8 17.32 8 18 8 C18 8.66 18 9.32 18 10 C18.99 10.33 19.98 10.66 21 11 C20.01 11.495 20.01 11.495 19 12 C17.66195313 11.04287109 17.66195313 11.04287109 16.296875 10.06640625 C15.1148073 9.23145367 13.93250316 8.39683574 12.75 7.5625 C12.16347656 7.14162109 11.57695312 6.72074219 10.97265625 6.28710938 C6.81848428 3.36500437 6.81848428 3.36500437 2 2 C1.34 3.32 0.68 4.64 0 6 C0 4.02 0 2.04 0 0 Z " fill="#4A9F9E" transform="translate(394,155)"/>
<path d="M0 0 C0.81076663 2.27014655 1.14773681 3.55678958 0.375 5.875 C-2.46963324 10.27125138 -5.13552946 13.89206277 -10 16 C-11.70921589 17.5412312 -11.70921589 17.5412312 -13 19 C-11.472721 14.35707185 -8.93409202 11.02223041 -5.9375 7.25 C-5.47794922 6.66089844 -5.01839844 6.07179687 -4.54492188 5.46484375 C-1.23028274 1.23028274 -1.23028274 1.23028274 0 0 Z " fill="#2D9191" transform="translate(133,229)"/>
<path d="M0 0 C-2.99799992 0.67696772 -5.99788223 1.34175788 -9 2 C-9.83917969 2.19078125 -10.67835938 2.3815625 -11.54296875 2.578125 C-16.80985614 3.72132536 -21.60745579 4.38518173 -27 4 C-27.66 3.34 -28.32 2.68 -29 2 C-24.99168741 -0.0041563 -20.04043371 0.25545606 -15.625 -0.125 C-14.57054687 -0.22425781 -13.51609375 -0.32351562 -12.4296875 -0.42578125 C-11.41390625 -0.51472656 -10.398125 -0.60367188 -9.3515625 -0.6953125 C-8.42166504 -0.77797363 -7.49176758 -0.86063477 -6.53369141 -0.94580078 C-4.12421275 -0.99734291 -2.28843733 -0.7131659 0 0 Z " fill="#479C9E" transform="translate(307,224)"/>
<path d="M0 0 C1.32 0.33 2.64 0.66 4 1 C3.34 2.32 2.68 3.64 2 5 C1.67 4.34 1.34 3.68 1 3 C-1.49923891 5.0231934 -2.14844286 6.39584762 -3.3125 9.5 C-5 13 -5 13 -8.0625 15 C-9.5165625 15.495 -9.5165625 15.495 -11 16 C-11.66 15.67 -12.32 15.34 -13 15 C-12.39671875 14.33613281 -11.7934375 13.67226562 -11.171875 12.98828125 C-10.37265625 12.10527344 -9.5734375 11.22226563 -8.75 10.3125 C-7.96109375 9.44238281 -7.1721875 8.57226562 -6.359375 7.67578125 C-4.15500436 5.17579137 -2.05866059 2.62054272 0 0 Z " fill="#3D586C" transform="translate(392,185)"/>
<path d="M0 0 C-0.56970507 3.30428943 -1.41443896 4.86561068 -4 7 C-10.41330744 9.26896798 -16.38051895 9.06765823 -23 8 C-19.65060119 5.97441119 -17.13037449 5.78261013 -13.25 5.875 C-12.26515625 5.89304687 -11.2803125 5.91109375 -10.265625 5.9296875 C-9.14414063 5.96449219 -9.14414063 5.96449219 -8 6 C-8 5.34 -8 4.68 -8 4 C-7.34 4 -6.68 4 -6 4 C-6 3.01 -6 2.02 -6 1 C-3 0 -3 0 0 0 Z " fill="#2C485E" transform="translate(143,453)"/>
<path d="M0 0 C6.8172251 5.99089479 12.20967143 14.04835715 14 23 C13.34 22.67 12.68 22.34 12 22 C12 21.34 12 20.68 12 20 C11.01 19.67 10.02 19.34 9 19 C8.9175 17.88625 8.835 16.7725 8.75 15.625 C8.5025 14.42875 8.255 13.2325 8 12 C6.06616713 10.69934079 6.06616713 10.69934079 4 10 C3.67 9.01 3.34 8.02 3 7 C2.34 6.67 1.68 6.34 1 6 C0.375 2.9375 0.375 2.9375 0 0 Z " fill="#4E9C98" transform="translate(292,62)"/>
<path d="M0 0 C1.74506836 0.07250977 1.74506836 0.07250977 3.52539062 0.14648438 C5.34780273 0.2305957 5.34780273 0.2305957 7.20703125 0.31640625 C8.43357422 0.36861328 9.66011719 0.42082031 10.92382812 0.47460938 C13.95598143 0.60439026 16.98781419 0.73936056 20.01953125 0.87890625 C20.01953125 1.20890625 20.01953125 1.53890625 20.01953125 1.87890625 C19.21322266 1.89348877 18.40691406 1.90807129 17.57617188 1.9230957 C13.89016503 1.99799087 10.20502288 2.09451585 6.51953125 2.19140625 C5.25109375 2.21396484 3.98265625 2.23652344 2.67578125 2.25976562 C-4.25585371 2.45832808 -9.64965788 3.04511472 -15.98046875 5.87890625 C-18.98046875 6.06640625 -18.98046875 6.06640625 -20.98046875 5.87890625 C-18.66858001 3.16688293 -16.96151835 2.39209868 -13.48046875 1.75390625 C-3.45179305 -0.15154213 -3.45179305 -0.15154213 0 0 Z " fill="#058282" transform="translate(217.98046875,225.12109375)"/>
<path d="M0 0 C0.33 0.99 0.66 1.98 1 3 C-0.1446875 4.0828125 -0.1446875 4.0828125 -1.3125 5.1875 C-4.06406749 7.79058313 -4.06406749 7.79058313 -5.375 10.75 C-7 13 -7 13 -10.6875 13.8125 C-11.780625 13.874375 -12.87375 13.93625 -14 14 C-9.72706118 8.76564995 -5.18419194 4.32893185 0 0 Z " fill="#389693" transform="translate(148,215)"/>
<path d="M0 0 C0.33 0.66 0.66 1.32 1 2 C-0.15628906 2.09087891 -0.15628906 2.09087891 -1.3359375 2.18359375 C-2.33882813 2.26738281 -3.34171875 2.35117188 -4.375 2.4375 C-5.87160156 2.55931641 -5.87160156 2.55931641 -7.3984375 2.68359375 C-9.97927613 2.84965626 -9.97927613 2.84965626 -12 4 C-14.37402501 4.07116382 -16.75000677 4.08409085 -19.125 4.0625 C-20.40632813 4.05347656 -21.68765625 4.04445313 -23.0078125 4.03515625 C-24.48894531 4.01775391 -24.48894531 4.01775391 -26 4 C-26 3.34 -26 2.68 -26 2 C-22.79217315 1.661671 -19.58366902 1.33023854 -16.375 1 C-15.47136719 0.90460938 -14.56773437 0.80921875 -13.63671875 0.7109375 C-9.06936961 0.24420109 -4.59882812 -0.12222799 0 0 Z " fill="#364D64" transform="translate(298,252)"/>
<path d="M0 0 C1.21105854 3.63317562 0.3974399 4.82943427 -1.25390625 8.14257812 C-1.58261719 8.77615234 -1.91132813 9.40972656 -2.25 10.0625 C-2.71986328 11.01866211 -2.71986328 11.01866211 -3.19921875 11.99414062 C-4.86049853 15.26500062 -5.89123946 16.92749297 -9 19 C-8.67 16.36 -8.34 13.72 -8 11 C-7.34 11 -6.68 11 -6 11 C-6 9.68 -6 8.36 -6 7 C-5.34 6.67 -4.68 6.34 -4 6 C-2.86649466 3.98330173 -2.86649466 3.98330173 -2 2 C-1.34 2 -0.68 2 0 2 C0 1.34 0 0.68 0 0 Z " fill="#399592" transform="translate(305,120)"/>
<path d="M0 0 C1.30532548 2.61065096 0.78282536 3.7554781 0.125 6.5625 C-0.05804688 7.36816406 -0.24109375 8.17382812 -0.4296875 9.00390625 C-1 11 -1 11 -2 12 C-2.36760731 14.32817964 -2.70241581 16.6618385 -3 19 C-3.99 19.33 -4.98 19.66 -6 20 C-5.5383261 13.88282085 -4.52757089 4.52757089 0 0 Z " fill="#499A98" transform="translate(198,74)"/>
<path d="M0 0 C0.66 0 1.32 0 2 0 C2.22333047 2.54113858 2.42902091 5.08172584 2.625 7.625 C2.68945312 8.33785156 2.75390625 9.05070312 2.8203125 9.78515625 C3.15497142 14.34488399 2.78239103 17.68688582 1 22 C0.18565857 19.14839609 -0.11881242 16.63373869 -0.09765625 13.671875 C-0.09282227 12.47304688 -0.09282227 12.47304688 -0.08789062 11.25 C-0.07951172 10.425 -0.07113281 9.6 -0.0625 8.75 C-0.05798828 7.90953125 -0.05347656 7.0690625 -0.04882812 6.203125 C-0.03707961 4.13538599 -0.01914522 2.06768376 0 0 Z " fill="#0A1F3D" transform="translate(309,263)"/>
<path d="M0 0 C-3.74538039 4.19936589 -6.73412001 6.2766211 -12 8 C-14.21484375 7.5703125 -14.21484375 7.5703125 -16 7 C-14.42210402 5.84669053 -12.8374518 4.70262073 -11.25 3.5625 C-9.92742187 2.60537109 -9.92742187 2.60537109 -8.578125 1.62890625 C-3.34939759 -1.6746988 -3.34939759 -1.6746988 0 0 Z " fill="#304C63" transform="translate(352,229)"/>
<path d="M0 0 C0.66 1.32 1.32 2.64 2 4 C1.401875 4.391875 0.80375 4.78375 0.1875 5.1875 C-2.25714675 7.21306445 -3.42111953 9.27284283 -5 12 C-5.99 12.495 -5.99 12.495 -7 13 C-6.7589852 5.89006342 -6.7589852 5.89006342 -4.59765625 3.35546875 C-2.9375 2 -2.9375 2 0 0 Z " fill="#1C8988" transform="translate(125,243)"/>
<path d="M0 0 C1.32 0.33 2.64 0.66 4 1 C3.67 6.94 3.34 12.88 3 19 C2.34 18.67 1.68 18.34 1 18 C0.5859375 14.98046875 0.5859375 14.98046875 0.375 11.1875 C0.30023438 9.94355469 0.22546875 8.69960937 0.1484375 7.41796875 C0.04113322 4.94714644 0 2.47315125 0 0 Z " fill="#097F82" transform="translate(304,92)"/>
<path d="M0 0 C1 2 1 2 0.50390625 3.875 C-2.0003631 9.52779057 -2.0003631 9.52779057 -5.05078125 10.96875 C-7.25 11.5 -7.25 11.5 -11 12 C-7.49102731 7.81576108 -3.91939465 3.80411834 0 0 Z " fill="#485D6E" transform="translate(376,203)"/>
<path d="M0 0 C6.6 0.33 13.2 0.66 20 1 C19.67 1.66 19.34 2.32 19 3 C12.73 3 6.46 3 0 3 C0 2.01 0 1.02 0 0 Z " fill="#081888" transform="translate(352,459)"/>
<path d="M0 0 C1.90608098 3.21182149 2.22266247 5.53882603 2.125 9.25 C2.10695312 10.14203125 2.08890625 11.0340625 2.0703125 11.953125 C2.04710937 12.62859375 2.02390625 13.3040625 2 14 C2.61875 13.79375 3.2375 13.5875 3.875 13.375 C4.926875 13.189375 4.926875 13.189375 6 13 C6.66 13.66 7.32 14.32 8 15 C5.6875 15.625 5.6875 15.625 3 16 C0 14 0 14 -0.75 11.375 C-1.04566484 7.38352465 -0.61313755 3.95133087 0 0 Z " fill="#516475" transform="translate(167,292)"/>
<path d="M0 0 C4.35522853 0.50642192 7.44239635 1.38411497 11 4 C11 4.66 11 5.32 11 6 C9.741875 5.87625 8.48375 5.7525 7.1875 5.625 C6.12595703 5.52058594 6.12595703 5.52058594 5.04296875 5.4140625 C3 5 3 5 0 3 C0 2.01 0 1.02 0 0 Z " fill="#51A2A1" transform="translate(270,48)"/>
<path d="M0 0 C7.92 0.33 15.84 0.66 24 1 C24 1.33 24 1.66 24 2 C16.08 2.33 8.16 2.66 0 3 C0 2.01 0 1.02 0 0 Z " fill="#193A53" transform="translate(241,305)"/>
<path d="M0 0 C0.99386719 0.02707031 1.98773438 0.05414063 3.01171875 0.08203125 C4.15060547 0.13423828 4.15060547 0.13423828 5.3125 0.1875 C5.3125 0.5175 5.3125 0.8475 5.3125 1.1875 C3.6109375 1.620625 3.6109375 1.620625 1.875 2.0625 C0.699375 2.43375 -0.47625 2.805 -1.6875 3.1875 C-2.0175 3.8475 -2.3475 4.5075 -2.6875 5.1875 C-3.3475 5.1875 -4.0075 5.1875 -4.6875 5.1875 C-4.6875 5.8475 -4.6875 6.5075 -4.6875 7.1875 C-6.0075 6.5275 -7.3275 5.8675 -8.6875 5.1875 C-8.6875 3.1875 -8.6875 3.1875 -7.54296875 1.57421875 C-4.966219 -0.35156265 -3.17653179 -0.11211289 0 0 Z " fill="#0F8585" transform="translate(279.6875,191.8125)"/>
<path d="M0 0 C0.33 0 0.66 0 1 0 C1.05402274 2.10388569 1.09280256 4.20816714 1.125 6.3125 C1.14820313 7.48425781 1.17140625 8.65601563 1.1953125 9.86328125 C1 13 1 13 -1 16 C-3 13 -3 13 -2.79296875 10.87890625 C-2.59316406 10.11449219 -2.39335937 9.35007812 -2.1875 8.5625 C-1.99542969 7.80066406 -1.80335938 7.03882813 -1.60546875 6.25390625 C-1.40566406 5.51011719 -1.20585937 4.76632812 -1 4 C-0.66505855 2.66706973 -0.33118813 1.3338678 0 0 Z " fill="#041455" transform="translate(311,279)"/>
<path d="M0 0 C-3.46735947 3.03393954 -7.52949826 4.9351577 -12 6 C-12.99 5.67 -13.98 5.34 -15 5 C-15 4.34 -15 3.68 -15 3 C-9.89665983 1.094753 -5.53657294 -0.42589023 0 0 Z " fill="#3F9599" transform="translate(329,215)"/>
<path d="M0 0 C0.66 0.33 1.32 0.66 2 1 C1.45925627 4.78520613 -0.07572746 6.59177555 -3 9 C-3.99 9 -4.98 9 -6 9 C-5.67 7.35 -5.34 5.7 -5 4 C-3.35 3.67 -1.7 3.34 0 3 C0 2.01 0 1.02 0 0 Z " fill="#208C8A" transform="translate(376,177)"/>
<path d="M0 0 C1.03139845 3.75429036 1.21296253 7.095687 1 11 C0.01 12.485 0.01 12.485 -1 14 C-1.39387788 16.32387947 -1.73486085 18.65793749 -2 21 C-2.33 21 -2.66 21 -3 21 C-3.38999191 13.40237976 -2.60758587 7.15533979 0 0 Z " fill="#4A9998" transform="translate(111,267)"/>
<path d="M0 0 C1.70703125 1.51953125 1.70703125 1.51953125 3 3 C1.82630859 2.98259766 1.82630859 2.98259766 0.62890625 2.96484375 C-0.38300781 2.95582031 -1.39492188 2.94679688 -2.4375 2.9375 C-3.95150391 2.92009766 -3.95150391 2.92009766 -5.49609375 2.90234375 C-7.94021067 2.71387324 -7.94021067 2.71387324 -9 4 C-11.33297433 4.04092937 -13.66705225 4.04241723 -16 4 C-10.85821801 0.57214534 -6.17875369 -0.58290129 0 0 Z " fill="#55A2A2" transform="translate(421,84)"/>
<path d="M0 0 C1.63001953 0.01353516 1.63001953 0.01353516 3.29296875 0.02734375 C4.12441406 0.03894531 4.95585937 0.05054688 5.8125 0.0625 C0.38458334 3.68111111 -5.87045272 3.17332539 -12.1875 3.0625 C-7.9047612 0.2073408 -5.04291942 -0.05422494 0 0 Z " fill="#2D465D" transform="translate(208.1875,255.9375)"/>
<path d="M0 0 C0.69738281 0.00902344 1.39476562 0.01804688 2.11328125 0.02734375 C3.82566958 0.05080112 5.53788004 0.08666896 7.25 0.125 C7.25 0.455 7.25 0.785 7.25 1.125 C3.29 1.125 -0.67 1.125 -4.75 1.125 C-4.75 1.785 -4.75 2.445 -4.75 3.125 C-8.38 3.455 -12.01 3.785 -15.75 4.125 C-14.43 3.465 -13.11 2.805 -11.75 2.125 C-11.16734375 1.75632813 -10.5846875 1.38765625 -9.984375 1.0078125 C-6.70057463 -0.2896331 -3.47199583 -0.08532315 0 0 Z " fill="#4A9A98" transform="translate(217.75,226.875)"/>
<path d="M0 0 C2.35171131 0.59861742 4.6859378 1.26924352 7 2 C7.33 2.66 7.66 3.32 8 4 C8.639375 4.103125 9.27875 4.20625 9.9375 4.3125 C10.618125 4.539375 11.29875 4.76625 12 5 C13.25 7.5625 13.25 7.5625 14 10 C10.67312232 8.45315734 7.75296022 6.54045021 4.75 4.4375 C3.85796875 3.81746094 2.9659375 3.19742188 2.046875 2.55859375 C1.37140625 2.04425781 0.6959375 1.52992187 0 1 C0 0.67 0 0.34 0 0 Z " fill="#3F9696" transform="translate(348,120)"/>
<path d="M0 0 C0.33 0 0.66 0 1 0 C1 3.3 1 6.6 1 10 C-0.32 10.33 -1.64 10.66 -3 11 C-2.88590407 9.54077307 -2.75834456 8.08259402 -2.625 6.625 C-2.55539063 5.81289063 -2.48578125 5.00078125 -2.4140625 4.1640625 C-2 2 -2 2 0 0 Z " fill="#1A797A" transform="translate(142,295)"/>
<path d="M0 0 C2 1 2 1 3.1875 4.3125 C3.94638329 7.75666263 3.98666245 8.83008446 3 12 C2.16151196 10.54462432 1.32936066 9.08559627 0.5 7.625 C-0.19609375 6.40683594 -0.19609375 6.40683594 -0.90625 5.1640625 C-2 3 -2 3 -2 1 C-1.34 0.67 -0.68 0.34 0 0 Z " fill="#4FA19F" transform="translate(199,127)"/>
<path d="M0 0 C0.33 0.66 0.66 1.32 1 2 C0.0625 4.625 0.0625 4.625 -1 7 C-1.99 7 -2.98 7 -4 7 C-4.33 7.66 -4.66 8.32 -5 9 C-5.66 9 -6.32 9 -7 9 C-5.64978174 4.58110387 -3.73884332 2.65654657 0 0 Z " fill="#2E9594" transform="translate(206,65)"/>
<path d="M0 0 C0.33 0.66 0.66 1.32 1 2 C1.66 2.33 2.32 2.66 3 3 C2.21625 3.0825 1.4325 3.165 0.625 3.25 C-0.24125 3.4975 -1.1075 3.745 -2 4 C-3.09166275 5.93330603 -3.09166275 5.93330603 -4 8 C-6.6205332 9.69066658 -7.82629722 10 -11 10 C-9.73232923 8.70522938 -8.46073776 7.41429661 -7.1875 6.125 C-6.47980469 5.40570313 -5.77210938 4.68640625 -5.04296875 3.9453125 C-3 2 -3 2 0 0 Z " fill="#6C8394" transform="translate(187,262)"/>
<path d="M0 0 C2.95887459 -0.08069658 5.9155659 -0.14034665 8.875 -0.1875 C9.71675781 -0.21263672 10.55851562 -0.23777344 11.42578125 -0.26367188 C12.23144531 -0.27333984 13.03710938 -0.28300781 13.8671875 -0.29296875 C14.98262939 -0.31653442 14.98262939 -0.31653442 16.12060547 -0.34057617 C17.05090576 -0.17199097 17.05090576 -0.17199097 18 0 C18.66 0.99 19.32 1.98 20 3 C17.36 3 14.72 3 12 3 C12 2.67 12 2.34 12 2 C8.04 1.67 4.08 1.34 0 1 C0 0.67 0 0.34 0 0 Z " fill="#5EB8B8" transform="translate(256,192)"/>
<path d="M0 0 C-5.00073317 2.80041057 -10.25451416 4.34821126 -16 4 C-13.02972634 1.48562881 -10.69159403 0.45635472 -6.875 -0.25 C-5.57175781 -0.50523437 -5.57175781 -0.50523437 -4.2421875 -0.765625 C-2 -1 -2 -1 0 0 Z " fill="#117F80" transform="translate(304,188)"/>
<path d="M0 0 C1.49341969 2.98683937 0.40648676 4.95160978 -0.4375 8.125 C-0.72496094 9.22070312 -1.01242188 10.31640625 -1.30859375 11.4453125 C-1.53675781 12.28835938 -1.76492187 13.13140625 -2 14 C-2.99 14 -3.98 14 -5 14 C-4.46515599 8.65155992 -2.53309233 4.64203897 0 0 Z " fill="#6E8193" transform="translate(173,277)"/>
<path d="M0 0 C-2.24276679 3.36415018 -2.64033012 3.48073245 -6.375 4.25 C-7.14585937 4.42015625 -7.91671875 4.5903125 -8.7109375 4.765625 C-11.09544508 5.00977253 -12.73234568 4.72482102 -15 4 C-12.87875034 3.13656176 -10.75286928 2.28449352 -8.625 1.4375 C-6.84996094 0.72400391 -6.84996094 0.72400391 -5.0390625 -0.00390625 C-2 -1 -2 -1 0 0 Z " fill="#64ADAC" transform="translate(383,96)"/>
<path d="M0 0 C0.5775 0.763125 1.155 1.52625 1.75 2.3125 C3.71703093 4.66200917 5.48476744 6.29323505 8 8 C1.25 7.25 1.25 7.25 -1 5 C-0.625 2.375 -0.625 2.375 0 0 Z " fill="#233E56" transform="translate(83,355)"/>
<path d="M0 0 C-1.5830577 4.2742558 -4.50568404 6.26531794 -8 9 C-8.33 8.01 -8.66 7.02 -9 6 C-8.01 6 -7.02 6 -6 6 C-5.896875 5.38125 -5.79375 4.7625 -5.6875 4.125 C-4.72223986 1.14146864 -3.16449578 0 0 0 Z " fill="#32928E" transform="translate(169,247)"/>
<path d="M0 0 C4.29 0 8.58 0 13 0 C8.91748364 3.06188727 8.43502071 3.37243503 3.75 3.1875 C2.85796875 3.16042969 1.9659375 3.13335937 1.046875 3.10546875 C0.37140625 3.07066406 -0.3040625 3.03585937 -1 3 C-0.67 2.01 -0.34 1.02 0 0 Z " fill="#233572" transform="translate(376,459)"/>
<path d="M0 0 C0.66 0 1.32 0 2 0 C2 0.99 2 1.98 2 3 C-4.93 3 -11.86 3 -19 3 C-19 2.67 -19 2.34 -19 2 C-17.71222656 1.93941406 -16.42445313 1.87882812 -15.09765625 1.81640625 C-13.41925841 1.73201753 -11.74087364 1.6473687 -10.0625 1.5625 C-8.78729492 1.50352539 -8.78729492 1.50352539 -7.48632812 1.44335938 C-6.67744141 1.40146484 -5.86855469 1.35957031 -5.03515625 1.31640625 C-3.91185913 1.26141968 -3.91185913 1.26141968 -2.76586914 1.20532227 C-0.97538674 1.18228937 -0.97538674 1.18228937 0 0 Z " fill="#021F3D" transform="translate(387,456)"/>
<path d="M0 0 C0.99 0 1.98 0 3 0 C4.5625 2.3125 4.5625 2.3125 6 5 C6.99 6.485 6.99 6.485 8 8 C4.21479387 7.45925627 2.40822445 5.92427254 0 3 C0 2.01 0 1.02 0 0 Z " fill="#294063" transform="translate(112,452)"/>
<path d="M0 0 C-3.74525799 3.74525799 -7.98270909 3.68909949 -13 4 C-9.09650503 -0.27525639 -5.61326496 -0.10591066 0 0 Z " fill="#0B7C7A" transform="translate(210,227)"/>
<path d="M0 0 C8.25 0 16.5 0 25 0 C25 0.33 25 0.66 25 1 C16.75 1 8.5 1 0 1 C0 0.67 0 0.34 0 0 Z " fill="#0A0AC1" transform="translate(96,325)"/>
<path d="M0 0 C0.99 0 1.98 0 3 0 C3.33 3.96 3.66 7.92 4 12 C0.49718958 7.32958611 0.4655008 5.58600962 0 0 Z " fill="#1A2838" transform="translate(308,250)"/>
<path d="M0 0 C0.99 0 1.98 0 3 0 C3 5.28 3 10.56 3 16 C2.67 16 2.34 16 2 16 C1.34 10.72 0.68 5.44 0 0 Z " fill="#546E7E" transform="translate(393,210)"/>
<path d="M0 0 C0.99 0 1.98 0 3 0 C3 0.99 3 1.98 3 3 C1.71086513 3.67154933 0.41859796 4.33708859 -0.875 5 C-1.59429687 5.37125 -2.31359375 5.7425 -3.0546875 6.125 C-5 7 -5 7 -7 7 C-7 6.34 -7 5.68 -7 5 C-6.34 5 -5.68 5 -5 5 C-5 4.34 -5 3.68 -5 3 C-3.35 3 -1.7 3 0 3 C0 2.01 0 1.02 0 0 Z " fill="#4F9C9D" transform="translate(339,207)"/>
<path d="M0 0 C-1.62339805 1.70884005 -3.29319053 3.37446717 -5 5 C-5.66 5 -6.32 5 -7 5 C-7 4.34 -7 3.68 -7 3 C-7.66 2.67 -8.32 2.34 -9 2 C-5.5647952 -0.29013653 -4.014669 -0.17842973 0 0 Z " fill="#3B9796" transform="translate(355,200)"/>
<path d="M0 0 C0.99 0 1.98 0 3 0 C2.8125 3.3125 2.8125 3.3125 2 7 C-0.5625 8.9375 -0.5625 8.9375 -3 10 C-2.21302675 6.58978257 -1.12880057 3.31114834 0 0 Z " fill="#1B8586" transform="translate(361,188)"/>
<path d="M0 0 C0.33 0 0.66 0 1 0 C1.0270043 1.45823212 1.04639787 2.91660675 1.0625 4.375 C1.07410156 5.18710938 1.08570313 5.99921875 1.09765625 6.8359375 C1 9 1 9 0 11 C-0.66 11 -1.32 11 -2 11 C-2.33 11.66 -2.66 12.32 -3 13 C-2.68991116 11.39536551 -2.37683713 9.79130769 -2.0625 8.1875 C-1.88847656 7.29417969 -1.71445312 6.40085937 -1.53515625 5.48046875 C-1 3 -1 3 0 0 Z " fill="#0D7D7A" transform="translate(305,111)"/>
<path d="M0 0 C-3.3730619 2.96829447 -6.62968884 4.06350475 -11 5 C-13.21875 4.546875 -13.21875 4.546875 -15 4 C-13.06767179 3.13419713 -11.12892806 2.28270059 -9.1875 1.4375 C-8.10855469 0.96183594 -7.02960938 0.48617187 -5.91796875 -0.00390625 C-3 -1 -3 -1 0 0 Z " fill="#64ACAA" transform="translate(368,102)"/>
<path d="M0 0 C3.63 0 7.26 0 11 0 C11.33 0.99 11.66 1.98 12 3 C10.56163249 2.88541307 9.12429034 2.75790884 7.6875 2.625 C6.88699219 2.55539062 6.08648437 2.48578125 5.26171875 2.4140625 C3 2 3 2 0 0 Z " fill="#213164" transform="translate(339,459)"/>
<path d="M0 0 C0 3.23655184 -0.6550847 4.78752639 -2 7.6875 C-2.37125 8.49574219 -2.7425 9.30398438 -3.125 10.13671875 C-3.41375 10.75160156 -3.7025 11.36648438 -4 12 C-5.11889609 8.59825551 -4.9845447 7.95657797 -3.6875 4.3125 C-2 1 -2 1 0 0 Z " fill="#062B49" transform="translate(176,277)"/>
<path d="M0 0 C0 0.99 0 1.98 0 3 C-4.22222222 6 -4.22222222 6 -7 6 C-6.875 4.125 -6.875 4.125 -6 2 C-2.9375 0.75 -2.9375 0.75 0 0 Z " fill="#22465E" transform="translate(181,272)"/>
<path d="M0 0 C0.33 0.66 0.66 1.32 1 2 C0.34 2 -0.32 2 -1 2 C-0.67 2.99 -0.34 3.98 0 5 C-1.98 5.99 -1.98 5.99 -4 7 C-4 6.34 -4 5.68 -4 5 C-5.32 5.33 -6.64 5.66 -8 6 C-5.51047079 3.33264727 -3.36591866 1.44253657 0 0 Z " fill="#399494" transform="translate(161,207)"/>
<path d="M0 0 C3.63 1.32 7.26 2.64 11 4 C11 4.66 11 5.32 11 6 C8.69 6 6.38 6 4 6 C3.34 4.68 2.68 3.36 2 2 C1.34 2 0.68 2 0 2 C0 1.34 0 0.68 0 0 Z " fill="#127675" transform="translate(410,161)"/>
<path d="M0 0 C0.99 0 1.98 0 3 0 C3.33 1.98 3.66 3.96 4 6 C4.99 6.33 5.98 6.66 7 7 C6.67 7.99 6.34 8.98 6 10 C5.67 9.34 5.34 8.68 5 8 C4.01 7.67 3.02 7.34 2 7 C0.8125 3.4375 0.8125 3.4375 0 0 Z " fill="#0E8584" transform="translate(289,62)"/>
<path d="M0 0 C0 0.66 0 1.32 0 2 C-4.50353262 3.75747614 -8.17639811 4.19294408 -13 4 C-10.84184495 1.84184495 -9.94361015 1.55101467 -7.0625 0.875 C-6.37285156 0.70742188 -5.68320313 0.53984375 -4.97265625 0.3671875 C-3 0 -3 0 0 0 Z " fill="#4C9998" transform="translate(237,46)"/>
<path d="M0 0 C2.97 0.33 5.94 0.66 9 1 C9.33 2.32 9.66 3.64 10 5 C6.05140217 4.4359146 3.29120954 3.2568294 0 1 C0 0.67 0 0.34 0 0 Z " fill="#374F62" transform="translate(85,362)"/>
<path d="M0 0 C0.33 0 0.66 0 1 0 C1.49230769 6.4 1.49230769 6.4 -1 9.4375 C-1.99 10.2109375 -1.99 10.2109375 -3 11 C-2.67 8.03 -2.34 5.06 -2 2 C-1.34 2 -0.68 2 0 2 C0 1.34 0 0.68 0 0 Z " fill="#1C325B" transform="translate(311,296)"/>
<path d="M0 0 C0.94875 0.350625 1.8975 0.70125 2.875 1.0625 C-0.31262365 3.18758244 -2.39012223 3.5645163 -6.125 4.0625 C-5.75 2.125 -5.75 2.125 -5.125 0.0625 C-3.125 -0.9375 -3.125 -0.9375 0 0 Z " fill="#4CA6A7" transform="translate(199.125,229.9375)"/>
<path d="M0 0 C0.66 1.32 1.32 2.64 2 4 C-1.80504787 5.79682816 -2.70600835 6.07349791 -7 5 C-4.69 3.35 -2.38 1.7 0 0 Z " fill="#52AAAA" transform="translate(327,172)"/>
<path d="M0 0 C4.81938524 -0.23509196 8.46298506 0.54815522 13 2 C13 2.66 13 3.32 13 4 C8.28596212 3.52060632 4.33420699 3.03165952 0 1 C0 0.67 0 0.34 0 0 Z " fill="#67ACB1" transform="translate(226,157)"/>
<path d="M0 0 C0.99 0.33 1.98 0.66 3 1 C3.94921875 3.06640625 3.94921875 3.06640625 4.6875 5.5625 C4.93886719 6.38878906 5.19023437 7.21507813 5.44921875 8.06640625 C5.63097656 8.70449219 5.81273437 9.34257813 6 10 C5.34 9.67 4.68 9.34 4 9 C4 8.34 4 7.68 4 7 C3.01 6.67 2.02 6.34 1 6 C0.67 4.02 0.34 2.04 0 0 Z " fill="#5EA8AD" transform="translate(300,75)"/>
<path d="M0 0 C0.66 0.33 1.32 0.66 2 1 C2 1.99 2 2.98 2 4 C0.03533587 5.06775224 -1.96855359 6.06553465 -4 7 C-4.66 6.67 -5.32 6.34 -6 6 C-4.02 4.02 -2.04 2.04 0 0 Z " fill="#4A9C9E" transform="translate(213,56)"/>
<path d="M0 0 C2.97 0 5.94 0 9 0 C9.33 0.99 9.66 1.98 10 3 C4.58461538 3.36923077 4.58461538 3.36923077 1.625 1.5 C1.08875 1.005 0.5525 0.51 0 0 Z " fill="#133651" transform="translate(229,305)"/>
<path d="M0 0 C0.33 0 0.66 0 1 0 C1.33 2.64 1.66 5.28 2 8 C0.02 8.99 0.02 8.99 -2 10 C-2 9.34 -2 8.68 -2 8 C-2.66 7.67 -3.32 7.34 -4 7 C-3.525625 6.5875 -3.05125 6.175 -2.5625 5.75 C-0.83733482 3.817815 -0.43415125 2.51807725 0 0 Z " fill="#338E93" transform="translate(423,157)"/>
<path d="M0 0 C0.66 0.99 1.32 1.98 2 3 C1.01 3.99 0.02 4.98 -1 6 C-2.32 5.34 -3.64 4.68 -5 4 C-3 1 -3 1 0 0 Z " fill="#359696" transform="translate(361,142)"/>
<path d="M0 0 C1.21386936 3.64160808 0.6674695 4.33165469 -0.9375 7.6875 C-1.31777344 8.49574219 -1.69804687 9.30398437 -2.08984375 10.13671875 C-2.39019531 10.75160156 -2.69054687 11.36648437 -3 12 C-4.10732122 8.67803635 -3.85064093 7.31749961 -3 4 C-2.67 3.34 -2.34 2.68 -2 2 C-1.34 2 -0.68 2 0 2 C0 1.34 0 0.68 0 0 Z " fill="#7BBAB8" transform="translate(305,120)"/>
<path d="M0 0 C1.59036701 3.18073402 0.78365299 5.62426403 0 9 C-2.0625 10.4375 -2.0625 10.4375 -4 11 C-3.39301257 6.87248551 -1.96189209 3.6678852 0 0 Z " fill="#75B7B9" transform="translate(198,74)"/>
<path d="M0 0 C-0.39803561 2.88575819 -0.79009069 3.82189513 -3.0625 5.75 C-3.701875 6.1625 -4.34125 6.575 -5 7 C-5.1875 4.625 -5.1875 4.625 -5 2 C-2 0 -2 0 0 0 Z " fill="#4B9E9C" transform="translate(161,255)"/>
<path d="M0 0 C0.33 0.99 0.66 1.98 1 3 C-0.21484375 4.82421875 -0.21484375 4.82421875 -1.9375 6.6875 C-2.50339844 7.31011719 -3.06929688 7.93273437 -3.65234375 8.57421875 C-4.09707031 9.04472656 -4.54179688 9.51523438 -5 10 C-5.33 9.34 -5.66 8.68 -6 8 C-4.02 5.36 -2.04 2.72 0 0 Z " fill="#7EBDBC" transform="translate(126,238)"/>
<path d="M0 0 C-0.66 0 -1.32 0 -2 0 C-2.33 0.99 -2.66 1.98 -3 3 C-5.31 3 -7.62 3 -10 3 C-9 1 -9 1 -6.125 -0.1875 C-3 -1 -3 -1 0 0 Z " fill="#117B7A" transform="translate(334,212)"/>
<path d="M0 0 C0.99 0 1.98 0 3 0 C2.45773019 3.79588866 0.79872437 5.47211993 -2 8 C-2.66 7.67 -3.32 7.34 -4 7 C-3.525625 6.21625 -3.05125 5.4325 -2.5625 4.625 C-1.66101977 3.11051322 -0.78820515 1.5764103 0 0 Z " fill="#072F4C" transform="translate(377,203)"/>
<path d="M0 0 C2.125 0.9375 2.125 0.9375 4 2 C3.67 2.66 3.34 3.32 3 4 C1.02 4 -0.96 4 -3 4 C-2.67 3.01 -2.34 2.02 -2 1 C-1.34 0.67 -0.68 0.34 0 0 Z " fill="#0F8581" transform="translate(322,177)"/>
<path d="M0 0 C1.20272819 2.40545638 1.10071472 3.94996953 1.0625 6.625 C1.05347656 7.44226563 1.04445313 8.25953125 1.03515625 9.1015625 C1.02355469 9.72804688 1.01195312 10.35453125 1 11 C-2 9 -2 9 -2.875 7.1875 C-3.05173809 4.09458341 -1.72797493 2.48828389 0 0 Z " fill="#5FA7A6" transform="translate(347,109)"/>
<path d="M0 0 C0 0.99 0 1.98 0 3 C-3.63 3.33 -7.26 3.66 -11 4 C-7.88789178 0.88789178 -4.34860953 0 0 0 Z " fill="#409395" transform="translate(405,88)"/>
<path d="M0 0 C1.21816406 0.03480469 1.21816406 0.03480469 2.4609375 0.0703125 C3.68683594 0.09738281 3.68683594 0.09738281 4.9375 0.125 C5.87722656 0.15980469 5.87722656 0.15980469 6.8359375 0.1953125 C6.5059375 1.1853125 6.1759375 2.1753125 5.8359375 3.1953125 C2.5359375 2.8653125 -0.7640625 2.5353125 -4.1640625 2.1953125 C-2.1640625 0.1953125 -2.1640625 0.1953125 0 0 Z " fill="#23385B" transform="translate(124.1640625,458.8046875)"/>
<path d="M0 0 C1.32 0.33 2.64 0.66 4 1 C3.34 2.32 2.68 3.64 2 5 C1.67 4.34 1.34 3.68 1 3 C-0.32 4.32 -1.64 5.64 -3 7 C-3.66 6.67 -4.32 6.34 -5 6 C-3.35 4.02 -1.7 2.04 0 0 Z " fill="#68767E" transform="translate(392,185)"/>
<path d="M0 0 C1.32 0 2.64 0 4 0 C4 0.66 4 1.32 4 2 C0.38026598 3.31626692 -2.09567131 4 -6 4 C-6 3.34 -6 2.68 -6 2 C-4.02 2 -2.04 2 0 2 C0 1.34 0 0.68 0 0 Z " fill="#62A6A7" transform="translate(266,157)"/>
<path d="M0 0 C0.66 0.33 1.32 0.66 2 1 C-2.75 5.875 -2.75 5.875 -5 7 C-5.66 6.34 -6.32 5.68 -7 5 C-6.401875 4.731875 -5.80375 4.46375 -5.1875 4.1875 C-3.02775192 3.01506533 -1.64209744 1.80630718 0 0 Z " fill="#118282" transform="translate(221,52)"/>
<path d="M0 0 C0.33 0 0.66 0 1 0 C1.93402724 5.41735797 2.20808081 8.80451575 0 14 C-0.33 14 -0.66 14 -1 14 C-0.67 9.38 -0.34 4.76 0 0 Z " fill="#0C8484" transform="translate(109,281)"/>
<path d="M0 0 C0.33 1.32 0.66 2.64 1 4 C-2.75 5.125 -2.75 5.125 -5 4 C-5 3.34 -5 2.68 -5 2 C-3.35 1.34 -1.7 0.68 0 0 Z " fill="#339595" transform="translate(192,231)"/>
<path d="M0 0 C1.67542976 0.28604898 3.34385343 0.61781233 5 1 C1.78817851 2.90608098 -0.53882603 3.22266247 -4.25 3.125 C-5.14203125 3.10695312 -6.0340625 3.08890625 -6.953125 3.0703125 C-7.96632813 3.03550781 -7.96632813 3.03550781 -9 3 C-9 2.67 -9 2.34 -9 2 C-6.94921875 1.77213542 -4.8984375 1.54427083 -2.84765625 1.31640625 C-0.98859771 1.18113386 -0.98859771 1.18113386 0 0 Z " fill="#0C7C7D" transform="translate(302,221)"/>
<path d="M0 0 C0.66 0.33 1.32 0.66 2 1 C0.515 3.475 0.515 3.475 -1 6 C-2.32 5.67 -3.64 5.34 -5 5 C-3.35 3.35 -1.7 1.7 0 0 Z " fill="#617A8C" transform="translate(363,215)"/>
<path d="M0 0 C0.66 0.33 1.32 0.66 2 1 C1.67 1.99 1.34 2.98 1 4 C-0.84765625 4.73046875 -0.84765625 4.73046875 -3.0625 5.1875 C-3.79597656 5.34605469 -4.52945312 5.50460938 -5.28515625 5.66796875 C-6.13400391 5.83232422 -6.13400391 5.83232422 -7 6 C-5.01180815 3.01771223 -3.42353587 1.21480305 0 0 Z " fill="#2B485F" transform="translate(372,209)"/>
<path d="M0 0 C2.9375 0.375 2.9375 0.375 6 1 C7.35439668 3.70879335 7.06501451 6.00933268 7 9 C6.6596875 8.1646875 6.6596875 8.1646875 6.3125 7.3125 C4.64103234 4.36753316 2.44723648 2.31843456 0 0 Z " fill="#0E807E" transform="translate(361,128)"/>
<path d="M0 0 C0.33 0.66 0.66 1.32 1 2 C0.22265625 3.9453125 0.22265625 3.9453125 -0.9375 6.125 C-1.31777344 6.84945312 -1.69804687 7.57390625 -2.08984375 8.3203125 C-2.39019531 8.87460938 -2.69054687 9.42890625 -3 10 C-3.33 10 -3.66 10 -4 10 C-3.67 7.69 -3.34 5.38 -3 3 C-2.34 3 -1.68 3 -1 3 C-0.67 2.01 -0.34 1.02 0 0 Z " fill="#10817F" transform="translate(202,71)"/>
<path d="M0 0 C1.0326802 2.78823655 1.04509293 3.8677274 0.0625 6.75 C-0.288125 7.4925 -0.63875 8.235 -1 9 C-1.66 9 -2.32 9 -3 9 C-2.44271087 5.65626525 -1.64826111 2.96687001 0 0 Z " fill="#348E8F" transform="translate(115,258)"/>
<path d="M0 0 C0.33 0.99 0.66 1.98 1 3 C-1.375 4.5625 -1.375 4.5625 -4 6 C-4.66 5.67 -5.32 5.34 -6 5 C-4.02 3.35 -2.04 1.7 0 0 Z " fill="#68ABAB" transform="translate(148,215)"/>
<path d="M0 0 C0 3 0 3 -1.375 4.6875 C-3 6 -3 6 -5 6 C-4.75 4.125 -4.75 4.125 -4 2 C-1.9375 0.75 -1.9375 0.75 0 0 Z " fill="#188780" transform="translate(348,157)"/>
<path d="M0 0 C0.66 0 1.32 0 2 0 C1.6875 2.375 1.6875 2.375 1 5 C0.01 5.66 -0.98 6.32 -2 7 C-1.125 1.125 -1.125 1.125 0 0 Z " fill="#208884" transform="translate(294,136)"/>
<path d="M0 0 C0.99 0 1.98 0 3 0 C2.01 3.3 1.02 6.6 0 10 C-1.00000429 5.99998285 -0.80688405 3.94476647 0 0 Z " fill="#4B9E9B" transform="translate(147,272)"/>
<path d="M0 0 C0.33 0.99 0.66 1.98 1 3 C-0.8125 3.625 -0.8125 3.625 -3 4 C-3.99 3.34 -4.98 2.68 -6 2 C-3 0 -3 0 0 0 Z " fill="#2A4B61" transform="translate(196,259)"/>
<path d="M0 0 C-2.97 1.32 -5.94 2.64 -9 4 C-8.67 2.68 -8.34 1.36 -8 0 C-4.71303767 -0.79953138 -3.28976808 -1.09658936 0 0 Z " fill="#429B9A" transform="translate(188,237)"/>
<path d="M0 0 C0 0.66 0 1.32 0 2 C-1.8125 3.0625 -1.8125 3.0625 -4 4 C-4.99 3.67 -5.98 3.34 -7 3 C-7 2.34 -7 1.68 -7 1 C-4 0 -4 0 0 0 Z " fill="#2E908F" transform="translate(321,217)"/>
<path d="M0 0 C0.66 0.33 1.32 0.66 2 1 C1.67 2.32 1.34 3.64 1 5 C-0.32 5.33 -1.64 5.66 -3 6 C-3 5.01 -3 4.02 -3 3 C-2.01 3 -1.02 3 0 3 C0 2.01 0 1.02 0 0 Z " fill="#137E7C" transform="translate(376,177)"/>
<path d="M0 0 C4.875 2.75 4.875 2.75 6 5 C4.35 5 2.7 5 1 5 C0.67 3.35 0.34 1.7 0 0 Z " fill="#3F9392" transform="translate(286,57)"/>
<path d="M0 0 C2.31 0.33 4.62 0.66 7 1 C7 1.66 7 2.32 7 3 C4.36 2.67 1.72 2.34 -1 2 C-0.67 1.34 -0.34 0.68 0 0 Z " fill="#1D7F82" transform="translate(262,46)"/>
<path d="M0 0 C3.63 0 7.26 0 11 0 C11 0.33 11 0.66 11 1 C7.37 1 3.74 1 0 1 C0 0.67 0 0.34 0 0 Z " fill="#000000" transform="translate(249,325)"/>
<path d="M0 0 C2.64 0 5.28 0 8 0 C8 0.33 8 0.66 8 1 C5.36 1 2.72 1 0 1 C0 0.67 0 0.34 0 0 Z " fill="#000000" transform="translate(288,325)"/>
<path d="M0 0 C2.64 0 5.28 0 8 0 C8 0.33 8 0.66 8 1 C5.36 1 2.72 1 0 1 C0 0.67 0 0.34 0 0 Z " fill="#000000" transform="translate(219,325)"/>
<path d="M0 0 C2.31 0 4.62 0 7 0 C7 0.33 7 0.66 7 1 C4.69 1 2.38 1 0 1 C0 0.67 0 0.34 0 0 Z " fill="#000000" transform="translate(192,325)"/>
<path d="M0 0 C1.98 0 3.96 0 6 0 C6 0.33 6 0.66 6 1 C4.02 1 2.04 1 0 1 C0 0.67 0 0.34 0 0 Z " fill="#000000" transform="translate(240,325)"/>
<path d="M0 0 C1.98 0 3.96 0 6 0 C6 0.33 6 0.66 6 1 C4.02 1 2.04 1 0 1 C0 0.67 0 0.34 0 0 Z " fill="#000000" transform="translate(173,325)"/>
<path d="M0 0 C3 1 3 1 3 1 Z " fill="#000000" transform="translate(211,325)"/>
<path d="M0 0 C3 1 3 1 3 1 Z " fill="#0000FF" transform="translate(127,325)"/>
<path d="M0 0 C2 1 2 1 2 1 Z " fill="#000000" transform="translate(282,325)"/>
<path d="M0 0 C2 1 2 1 2 1 Z " fill="#000000" transform="translate(235,325)"/>
<path d="M0 0 C2 1 2 1 2 1 Z " fill="#000000" transform="translate(231,325)"/>
<path d="M0 0 C2 1 2 1 2 1 Z " fill="#000000" transform="translate(204,325)"/>
<path d="M0 0 C2 1 2 1 2 1 Z " fill="#000000" transform="translate(184,325)"/>
<path d="M0 0 C2 1 2 1 2 1 Z " fill="#0000FF" transform="translate(132,325)"/>
<path d="M0 0 C2 1 2 1 2 1 Z " fill="#0000FF" transform="translate(123,325)"/>
<path d="" fill="#000000" transform="translate(0,0)"/>
<path d="" fill="#000000" transform="translate(0,0)"/>
<path d="" fill="#000000" transform="translate(0,0)"/>
<path d="" fill="#000000" transform="translate(0,0)"/>
</svg>
